<mxfile host="65bd71144e">
    <diagram id="wtazrVgutXvy5CB_B-mV" name="第 1 页">
        <mxGraphModel dx="1957" dy="972" grid="1" gridSize="10" guides="1" tooltips="1" connect="1" arrows="1" fold="1" page="1" pageScale="1" pageWidth="827" pageHeight="1169" math="0" shadow="0">
            <root>
                <mxCell id="0"/>
                <mxCell id="1" parent="0"/>
                <mxCell id="3" value="&lt;blockquote style=&quot;margin: 0 0 0 40px ; border: none ; padding: 0px&quot;&gt;&lt;pre style=&quot;font-size: 13px&quot;&gt;&lt;font style=&quot;font-size: 15px&quot; face=&quot;Verdana&quot;&gt;&lt;b&gt;&lt;font style=&quot;font-size: 15px&quot;&gt;JVM内存&lt;br&gt;&lt;/font&gt;&lt;font style=&quot;font-size: 15px&quot;&gt;方法的调用机制分析&lt;/font&gt;&lt;/b&gt;&lt;/font&gt;&lt;/pre&gt;&lt;/blockquote&gt;" style="rounded=0;whiteSpace=wrap;html=1;fillColor=#6d8764;strokeColor=#3A5431;fontColor=#ffffff;align=center;verticalAlign=top;labelPosition=center;verticalLabelPosition=middle;horizontal=1;" parent="1" vertex="1">
                    <mxGeometry x="440" y="120" width="759.58" height="520" as="geometry"/>
                </mxCell>
                <mxCell id="4" value="&lt;h2&gt;栈&lt;/h2&gt;" style="rounded=0;whiteSpace=wrap;html=1;fillColor=#647687;strokeColor=#0F0F0F;fontColor=#ffffff;align=center;labelPosition=center;verticalLabelPosition=middle;verticalAlign=top;" parent="1" vertex="1">
                    <mxGeometry x="459" y="190" width="270" height="430" as="geometry"/>
                </mxCell>
                <mxCell id="6" value="main栈" style="rounded=0;whiteSpace=wrap;html=1;fontFamily=Verdana;fontSize=15;strokeColor=#543B27;fillColor=#B266FF;verticalAlign=top;align=left;fontColor=#ffffff;" parent="1" vertex="1">
                    <mxGeometry x="474" y="370" width="240" height="240" as="geometry"/>
                </mxCell>
                <mxCell id="7" value="Person p = new..." style="rounded=0;whiteSpace=wrap;html=1;fontFamily=Verdana;fontSize=15;strokeColor=#543B27;fillColor=#B266FF;align=left;" parent="1" vertex="1">
                    <mxGeometry x="479" y="400" width="230" height="27" as="geometry"/>
                </mxCell>
                <mxCell id="8" value="&lt;h2&gt;堆&lt;/h2&gt;" style="rounded=0;whiteSpace=wrap;html=1;fillColor=#647687;strokeColor=#0F0F0F;fontColor=#ffffff;align=center;labelPosition=center;verticalLabelPosition=middle;verticalAlign=top;" parent="1" vertex="1">
                    <mxGeometry x="739" y="190" width="430" height="230" as="geometry"/>
                </mxCell>
                <mxCell id="9" value="New Person 对象&amp;nbsp;&lt;font color=&quot;#000000&quot;&gt;&lt;br&gt;&lt;/font&gt;" style="rounded=0;whiteSpace=wrap;html=1;fontFamily=Verdana;fontSize=15;strokeColor=#006EAF;fillColor=#1ba1e2;verticalAlign=top;align=left;fontColor=#ffffff;" parent="1" vertex="1">
                    <mxGeometry x="759" y="240" width="201" height="160" as="geometry"/>
                </mxCell>
                <mxCell id="11" value="test200栈(独立空间)" style="rounded=0;whiteSpace=wrap;html=1;fontFamily=Verdana;fontSize=15;strokeColor=#543B27;fillColor=#FFB366;verticalAlign=top;align=left;fontColor=#ffffff;" parent="1" vertex="1">
                    <mxGeometry x="474" y="240" width="240" height="125" as="geometry"/>
                </mxCell>
                <mxCell id="12" style="edgeStyle=orthogonalEdgeStyle;html=1;exitX=1;exitY=0.5;exitDx=0;exitDy=0;fontFamily=Verdana;fontSize=15;rounded=0;curved=1;spacing=2;startSize=6;strokeColor=default;strokeWidth=3;" parent="1" source="7" edge="1">
                    <mxGeometry relative="1" as="geometry">
                        <Array as="points">
                            <mxPoint x="700" y="444"/>
                            <mxPoint x="700" y="255"/>
                        </Array>
                        <mxPoint x="760" y="255" as="targetPoint"/>
                    </mxGeometry>
                </mxCell>
                <mxCell id="13" value="&lt;h2&gt;方法区&lt;/h2&gt;" style="rounded=0;whiteSpace=wrap;html=1;fillColor=#647687;strokeColor=#0F0F0F;fontColor=#ffffff;align=center;labelPosition=center;verticalLabelPosition=middle;verticalAlign=top;" parent="1" vertex="1">
                    <mxGeometry x="739" y="440" width="430" height="180" as="geometry"/>
                </mxCell>
                <mxCell id="17" style="edgeStyle=orthogonalEdgeStyle;html=1;fontFamily=Verdana;fontSize=15;rounded=0;curved=1;strokeWidth=3;exitX=0;exitY=0.5;exitDx=0;exitDy=0;entryX=0;entryY=0.5;entryDx=0;entryDy=0;" parent="1" target="11" edge="1">
                    <mxGeometry relative="1" as="geometry">
                        <Array as="points">
                            <mxPoint x="450" y="473"/>
                            <mxPoint x="450" y="302"/>
                        </Array>
                        <mxPoint x="601" y="388" as="targetPoint"/>
                        <mxPoint x="479" y="472.5" as="sourcePoint"/>
                    </mxGeometry>
                </mxCell>
                <mxCell id="18" value="b.test200(p)" style="rounded=0;whiteSpace=wrap;html=1;fontFamily=Verdana;fontSize=15;strokeColor=#543B27;fillColor=#B266FF;align=left;" parent="1" vertex="1">
                    <mxGeometry x="479" y="432.5" width="230" height="30" as="geometry"/>
                </mxCell>
                <mxCell id="20" value="&lt;div style=&quot;color: rgb(212 , 212 , 212) ; background-color: rgb(30 , 30 , 30) ; font-family: &amp;#34;cn regular&amp;#34; , &amp;#34;consolas&amp;#34; , &amp;#34;courier new&amp;#34; , monospace , &amp;#34;consolas&amp;#34; , &amp;#34;courier new&amp;#34; , monospace ; font-size: 18px ; line-height: 24px&quot;&gt;&lt;div&gt;&lt;span style=&quot;color: #569cd6&quot;&gt;public&lt;/span&gt; &lt;span style=&quot;color: #569cd6&quot;&gt;class&lt;/span&gt; MethodParameter02 {&lt;/div&gt;&lt;br&gt;&lt;div&gt;&amp;nbsp; &amp;nbsp; &lt;span style=&quot;color: #569cd6&quot;&gt;public&lt;/span&gt; &lt;span style=&quot;color: #569cd6&quot;&gt;static&lt;/span&gt; &lt;span style=&quot;color: #569cd6&quot;&gt;void&lt;/span&gt; main(&lt;span style=&quot;color: #569cd6&quot;&gt;String&lt;/span&gt;[] args) {&lt;/div&gt;&lt;div&gt;&amp;nbsp; &amp;nbsp; &amp;nbsp; &amp;nbsp; &lt;span style=&quot;color: #569cd6&quot;&gt;Person&lt;/span&gt; p = &lt;span style=&quot;color: #569cd6&quot;&gt;new&lt;/span&gt; Person();&lt;/div&gt;&lt;div&gt;&amp;nbsp; &amp;nbsp; &amp;nbsp; &amp;nbsp; p.name = &lt;span style=&quot;color: #ce9178&quot;&gt;&quot;jack&quot;&lt;/span&gt;;&lt;/div&gt;&lt;div&gt;&amp;nbsp; &amp;nbsp; &amp;nbsp; &amp;nbsp; p.age = &lt;span style=&quot;color: #b5cea8&quot;&gt;10&lt;/span&gt;;&lt;/div&gt;&lt;br&gt;&lt;div&gt;&amp;nbsp; &amp;nbsp; &amp;nbsp; &amp;nbsp; &lt;span style=&quot;color: #569cd6&quot;&gt;B&lt;/span&gt; b = &lt;span style=&quot;color: #569cd6&quot;&gt;new&lt;/span&gt; B();&lt;/div&gt;&lt;div&gt;&amp;nbsp; &amp;nbsp; &amp;nbsp; &amp;nbsp; b.test200(p);&lt;/div&gt;&lt;div&gt;&amp;nbsp; &amp;nbsp; &amp;nbsp; &amp;nbsp; System.out.println(p.age); &lt;span style=&quot;color: #6a9955&quot;&gt;// 10&lt;/span&gt;&amp;nbsp; &amp;nbsp;&lt;/div&gt;&lt;div&gt;&amp;nbsp; &amp;nbsp; }&lt;/div&gt;&lt;div&gt;}&lt;/div&gt;&lt;br&gt;&lt;div&gt;&lt;span style=&quot;color: #569cd6&quot;&gt;class&lt;/span&gt; Person {&lt;/div&gt;&lt;div&gt;&amp;nbsp; &amp;nbsp; &lt;span style=&quot;color: #569cd6&quot;&gt;String&lt;/span&gt; name;&lt;/div&gt;&lt;div&gt;&amp;nbsp; &amp;nbsp; &lt;span style=&quot;color: #569cd6&quot;&gt;int&lt;/span&gt; age;&lt;/div&gt;&lt;div&gt;}&lt;/div&gt;&lt;br&gt;&lt;div&gt;&lt;span style=&quot;color: #569cd6&quot;&gt;class&lt;/span&gt; B {&lt;/div&gt;&lt;div&gt;&amp;nbsp; &amp;nbsp; &lt;span style=&quot;color: #569cd6&quot;&gt;public&lt;/span&gt; &lt;span style=&quot;color: #569cd6&quot;&gt;void&lt;/span&gt; test200(&lt;span style=&quot;color: #569cd6&quot;&gt;Person&lt;/span&gt; p) {&lt;/div&gt;&lt;div&gt;&amp;nbsp; &amp;nbsp; &amp;nbsp; &amp;nbsp;&amp;nbsp;&lt;span style=&quot;color: rgb(106 , 153 , 85)&quot;&gt;// test200内的p指向null&lt;/span&gt;&lt;/div&gt;&lt;div&gt;&lt;span style=&quot;color: rgb(106 , 153 , 85)&quot;&gt;&lt;span style=&quot;white-space: pre&quot;&gt;&#9;&lt;/span&gt;// 不影响main方法中的p&lt;/span&gt;&lt;/div&gt;&lt;div&gt;&lt;span&gt;&#9;&lt;/span&gt;&lt;span style=&quot;white-space: pre&quot;&gt;&#9;&lt;/span&gt;p = &lt;span style=&quot;color: #569cd6&quot;&gt;null&lt;/span&gt;;&lt;/div&gt;&lt;div&gt;&amp;nbsp; &amp;nbsp; }&lt;/div&gt;&lt;div&gt;}&lt;/div&gt;&lt;/div&gt;" style="text;html=1;align=left;verticalAlign=middle;resizable=0;points=[];autosize=1;strokeColor=none;fillColor=none;" parent="1" vertex="1">
                    <mxGeometry y="60" width="450" height="610" as="geometry"/>
                </mxCell>
                <mxCell id="21" value="常量池&lt;br&gt;&lt;font color=&quot;#000000&quot;&gt;&quot;jack&quot; -&amp;gt; 0x33&lt;br&gt;&lt;/font&gt;" style="rounded=0;whiteSpace=wrap;html=1;fontFamily=Verdana;fontSize=15;strokeColor=#006EAF;fillColor=#1ba1e2;verticalAlign=top;align=left;fontColor=#ffffff;" parent="1" vertex="1">
                    <mxGeometry x="759" y="492.5" width="240" height="97.5" as="geometry"/>
                </mxCell>
                <mxCell id="22" value="&lt;font style=&quot;font-size: 14px&quot;&gt;0x33&lt;/font&gt;" style="rounded=0;whiteSpace=wrap;html=1;" parent="1" vertex="1">
                    <mxGeometry x="770" y="270" width="160" height="30" as="geometry"/>
                </mxCell>
                <mxCell id="24" value="&lt;font style=&quot;font-size: 14px&quot;&gt;10&lt;/font&gt;" style="rounded=0;whiteSpace=wrap;html=1;" parent="1" vertex="1">
                    <mxGeometry x="770" y="310" width="160" height="30" as="geometry"/>
                </mxCell>
                <mxCell id="25" value="&lt;font style=&quot;font-size: 14px&quot;&gt;null&lt;/font&gt;" style="rounded=0;whiteSpace=wrap;html=1;" parent="1" vertex="1">
                    <mxGeometry x="770" y="200" width="160" height="30" as="geometry"/>
                </mxCell>
                <mxCell id="29" style="edgeStyle=orthogonalEdgeStyle;curved=1;html=1;entryX=0;entryY=0.5;entryDx=0;entryDy=0;fontSize=14;strokeWidth=3;" parent="1" source="28" target="25" edge="1">
                    <mxGeometry relative="1" as="geometry"/>
                </mxCell>
                <mxCell id="28" value="&lt;font style=&quot;font-size: 15px&quot; face=&quot;Verdana&quot;&gt;p -&amp;gt; null&lt;/font&gt;" style="rounded=0;whiteSpace=wrap;html=1;align=left;" parent="1" vertex="1">
                    <mxGeometry x="479" y="270" width="160" height="30" as="geometry"/>
                </mxCell>
                <mxCell id="30" value="System.out.println(p.age)&lt;br&gt;// 10" style="rounded=0;whiteSpace=wrap;html=1;fontFamily=Verdana;fontSize=15;strokeColor=#543B27;fillColor=#B266FF;align=left;" parent="1" vertex="1">
                    <mxGeometry x="479" y="550" width="230" height="50" as="geometry"/>
                </mxCell>
                <mxCell id="33" style="edgeStyle=orthogonalEdgeStyle;curved=1;html=1;entryX=0;entryY=0.75;entryDx=0;entryDy=0;fontFamily=Verdana;fontSize=15;strokeWidth=3;" parent="1" target="22" edge="1">
                    <mxGeometry relative="1" as="geometry">
                        <mxPoint x="709" y="485.0000000000002" as="sourcePoint"/>
                    </mxGeometry>
                </mxCell>
                <mxCell id="34" style="edgeStyle=orthogonalEdgeStyle;curved=1;html=1;entryX=0;entryY=1;entryDx=0;entryDy=0;fontFamily=Verdana;fontSize=15;strokeWidth=3;" parent="1" target="24" edge="1">
                    <mxGeometry relative="1" as="geometry">
                        <mxPoint x="709" y="485.0000000000002" as="sourcePoint"/>
                    </mxGeometry>
                </mxCell>
                <mxCell id="37" style="edgeStyle=orthogonalEdgeStyle;curved=1;html=1;fontFamily=Verdana;fontSize=15;strokeWidth=3;" parent="1" source="35" target="36" edge="1">
                    <mxGeometry relative="1" as="geometry">
                        <Array as="points">
                            <mxPoint x="594" y="620"/>
                            <mxPoint x="1066" y="620"/>
                        </Array>
                    </mxGeometry>
                </mxCell>
                <mxCell id="35" value="B b = new B();" style="rounded=0;whiteSpace=wrap;html=1;fontFamily=Verdana;fontSize=15;strokeColor=#543B27;fillColor=#B266FF;align=left;" parent="1" vertex="1">
                    <mxGeometry x="479" y="510" width="230" height="30" as="geometry"/>
                </mxCell>
                <mxCell id="36" value="New B 对象&amp;nbsp;&lt;font color=&quot;#000000&quot;&gt;&lt;br&gt;&lt;/font&gt;" style="rounded=0;whiteSpace=wrap;html=1;fontFamily=Verdana;fontSize=15;strokeColor=#006EAF;fillColor=#1ba1e2;verticalAlign=top;align=left;fontColor=#ffffff;" parent="1" vertex="1">
                    <mxGeometry x="970" y="240" width="191" height="160" as="geometry"/>
                </mxCell>
                <mxCell id="23" style="edgeStyle=orthogonalEdgeStyle;html=1;fontSize=14;curved=1;strokeWidth=3;" parent="1" source="22" target="21" edge="1">
                    <mxGeometry relative="1" as="geometry">
                        <Array as="points">
                            <mxPoint x="940" y="285"/>
                            <mxPoint x="940" y="400"/>
                            <mxPoint x="870" y="400"/>
                        </Array>
                    </mxGeometry>
                </mxCell>
                <mxCell id="39" value="p.name = &quot;jack&quot;; p.age = 10" style="rounded=0;whiteSpace=wrap;html=1;fontFamily=Verdana;fontSize=15;strokeColor=#543B27;fillColor=#B266FF;align=left;" parent="1" vertex="1">
                    <mxGeometry x="479" y="470" width="230" height="30" as="geometry"/>
                </mxCell>
            </root>
        </mxGraphModel>
    </diagram>
</mxfile>